<svg width="26" height="32" viewBox="0 0 26 32" fill="none" xmlns="http://www.w3.org/2000/svg">
<path d="M9.37036 27.0112L11.3878 29.8746L7.93864 29.1262L4.71726 26.458L9.37036 27.0112Z" fill="#84EEFE"/>
<path d="M2.66821 22.4226L3.67693 24.4726L1.39918 23.3988L0 21.2512L2.66821 22.4226Z" fill="#84EEFE"/>
<path d="M2.76529 17.4457L5.36842 19.0726L3.74146 19.4631L2.76529 17.4457Z" fill="#84EEFE"/>
<path d="M6.41167 15.3953L6.89976 16.6318L4.75217 15.6881L6.41167 15.3953Z" fill="#84EEFE"/>
<path fill-rule="evenodd" clip-rule="evenodd" d="M11.4878 12.075L11.9434 13.6043L9.14499 15.9146L7.51803 20.828L4.10142 21.3812L6.34662 24.5049L10.3489 24.9605L14.0909 31.2731L17.5401 27.4335V22.356L19.9805 22.9465V26.5389L23.0717 29.5L22.2583 27.0596V23.4977L23.4622 23.7891L25.2519 22.7804L26.0003 20.6002L22.4535 16.2725L22.7464 14.613L21.4773 13.2076L18.1258 5.11161L16.464 4.46083L16.0433 3.58227L7.45295 1.72754L3.74349 2.57356L2.14907 5.01399L4.1665 3.97274L6.73709 3.84258L11.9434 6.60841L13.0171 9.73217L11.1299 7.81236L11.4878 12.075ZM17 14.613L18.5 17L19.7202 16.8147L20 15.5L17 14.613Z" fill="#84EEFE"/>
<path d="M6.60905 4.54868L5.59822 6.38064L7.87161 5.23205L6.60905 4.54868Z" fill="#84EEFE"/>
</svg>
